{
  "extensions" : {
    "EXT_mesh_features" : {
      "schema" : {
        "classes" : {
          "exampleMetadataClass" : {
            "name" : "Example metadata class",
            "description" : "An example metadata class",
            "properties" : {
              "example_VEC3_FLOAT32" : {
                "name" : "Example VEC3 FLOAT32 property",
                "description" : "An example property, with type VEC3, with component type FLOAT32",
                "type" : "VEC3",
                "componentType" : "FLOAT32"
              }
            }
          }
        }
      },
      "propertyTables" : [ {
        "name" : "Example property table",
        "class" : "exampleMetadataClass",
        "count" : 4,
        "properties" : {
          "example_VEC3_FLOAT32" : {
            "bufferView" : 2
          }
        }
      } ]
    }
  },
  "extensionsUsed" : [ "EXT_mesh_features" ],
  "accessors" : [ {
    "bufferView" : 0,
    "byteOffset" : 0,
    "componentType" : 5123,
    "count" : 24,
    "type" : "SCALAR",
    "max" : [ 15 ],
    "min" : [ 0 ]
  }, {
    "bufferView" : 1,
    "byteOffset" : 0,
    "componentType" : 5126,
    "count" : 16,
    "type" : "VEC3",
    "max" : [ 1.0, 1.0, 0.0 ],
    "min" : [ 0.0, 0.0, 0.0 ]
  }, {
    "bufferView" : 2,
    "byteOffset" : 0,
    "componentType" : 5126,
    "count" : 16,
    "type" : "VEC3",
    "max" : [ 0.0, 0.0, 1.0 ],
    "min" : [ 0.0, 0.0, 1.0 ]
  } ],
  "asset" : {
    "generator" : "JglTF from https://github.com/javagl/JglTF",
    "version" : "2.0"
  },
  "buffers" : [ {
    "uri" : "data:application/gltf-buffer;base64,",
    "byteLength" : 432
  }, {
    "uri" : "data:application/gltf-buffer;base64,",
    "byteLength" : 48
  } ],
  "bufferViews" : [ {
    "buffer" : 0,
    "byteOffset" : 0,
    "byteLength" : 48,
    "target" : 34963
  }, {
    "buffer" : 0,
    "byteOffset" : 48,
    "byteLength" : 192,
    "target" : 34962
  }, {
    "buffer" : 0,
    "byteOffset" : 240,
    "byteLength" : 192,
    "target" : 34962
  }, {
    "buffer" : 1,
    "byteOffset" : 0,
    "byteLength" : 48,
    "target" : 34962
  } ],
  "materials" : [ {
    "pbrMetallicRoughness" : {
      "baseColorFactor" : [ 0.5, 1.0, 0.5, 1.0 ],
      "metallicFactor" : 0.0,
      "roughnessFactor" : 1.0
    },
    "alphaMode" : "OPAQUE",
    "doubleSided" : true
  } ],
  "meshes" : [ {
    "primitives" : [ {
      "extensions" : {
        "EXT_mesh_features" : {
          "featureIds" : [ {
            "offset" : 0,
            "repeat" : 4
          } ],
          "propertyTables" : [ 0 ]
        }
      },
      "attributes" : {
        "POSITION" : 1,
        "NORMAL" : 2
      },
      "indices" : 0,
      "material" : 0,
      "mode" : 4
    } ]
  } ],
  "nodes" : [ {
    "mesh" : 0
  } ],
  "scene" : 0,
  "scenes" : [ {
    "nodes" : [ 0 ]
  } ]
}