{
  "extensions" : {
    "EXT_mesh_features" : {
      "schema" : {
        "classes" : {
          "exampleMetadataClassA" : {
            "name" : "Example metadata class A",
            "description" : "First example metadata class",
            "properties" : {
              "example_VEC3_FLOAT32" : {
                "name" : "Example VEC3 FLOAT32 property",
                "description" : "An example property, with type VEC3, with component type FLOAT32",
                "type" : "VEC3",
                "componentType" : "FLOAT32"
              },
              "example_STRING" : {
                "name" : "Example STRING property",
                "description" : "An example property, with component type STRING",
                "type" : "SINGLE",
                "componentType" : "STRING"
              }
            }
          },
          "exampleMetadataClassB" : {
            "name" : "Example metadata class B",
            "description" : "Second example metadata class",
            "properties" : {
              "example_variable_length_ARRAY_normalized_UINT8" : {
                "name" : "Example variable-length ARRAY normalized INT8 property",
                "description" : "An example property, with type ARRAY, with component type UINT8, normalized, and variable length ",
                "type" : "ARRAY",
                "componentType" : "UINT8",
                "normalized" : true
              },
              "example_fixed_length_ARRAY_ENUM" : {
                "name" : "Example fixed-length ARRAY ENUM property",
                "description" : "An example property, with type ARRAY, with component type ENUM, enum type exampleEnumType, and fixed length ",
                "type" : "ARRAY",
                "enumType" : "exampleEnumType",
                "componentType" : "ENUM",
                "componentCount" : 2
              }
            }
          }
        },
        "enums" : {
          "exampleEnumType" : {
            "values" : [ {
              "name" : "ExampleEnumValueA",
              "value" : 0
            }, {
              "name" : "ExampleEnumValueB",
              "value" : 1
            }, {
              "name" : "ExampleEnumValueC",
              "value" : 2
            } ]
          }
        }
      },
      "propertyTables" : [ {
        "name" : "Example property table",
        "class" : "exampleMetadataClassA",
        "count" : 4,
        "properties" : {
          "example_VEC3_FLOAT32" : {
            "bufferView" : 4
          },
          "example_STRING" : {
            "bufferView" : 5,
            "stringOffsetBufferView" : 6
          }
        }
      }, {
        "name" : "Example property table",
        "class" : "exampleMetadataClassB",
        "count" : 4,
        "properties" : {
          "example_variable_length_ARRAY_normalized_UINT8" : {
            "bufferView" : 7,
            "arrayOffsetBufferView" : 8
          },
          "example_fixed_length_ARRAY_ENUM" : {
            "bufferView" : 9,
            "arrayOffsetBufferView" : 10
          }
        }
      } ]
    }
  },
  "extensionsUsed" : [ "EXT_mesh_features" ],
  "accessors" : [ {
    "bufferView" : 0,
    "byteOffset" : 0,
    "componentType" : 5123,
    "count" : 24,
    "type" : "SCALAR",
    "max" : [ 15 ],
    "min" : [ 0 ]
  }, {
    "bufferView" : 1,
    "byteOffset" : 0,
    "componentType" : 5126,
    "count" : 16,
    "type" : "VEC3",
    "max" : [ 1.0, 1.0, 0.0 ],
    "min" : [ 0.0, 0.0, 0.0 ]
  }, {
    "bufferView" : 2,
    "byteOffset" : 0,
    "componentType" : 5126,
    "count" : 16,
    "type" : "VEC3",
    "max" : [ 0.0, 0.0, 1.0 ],
    "min" : [ 0.0, 0.0, 1.0 ]
  }, {
    "bufferView" : 3,
    "byteOffset" : 0,
    "componentType" : 5121,
    "count" : 16,
    "type" : "SCALAR",
    "max" : [ 3 ],
    "min" : [ 0 ]
  } ],
  "asset" : {
    "generator" : "JglTF from https://github.com/javagl/JglTF",
    "version" : "2.0"
  },
  "buffers" : [ {
    "uri" : "data:application/gltf-buffer;base64,",
    "byteLength" : 496
  }, {
    "uri" : "data:application/gltf-buffer;base64,",
    "byteLength" : 104
  }, {
    "uri" : "data:application/gltf-buffer;base64,",
    "byteLength" : 72
  } ],
  "bufferViews" : [ {
    "buffer" : 0,
    "byteOffset" : 0,
    "byteLength" : 48,
    "target" : 34963
  }, {
    "buffer" : 0,
    "byteOffset" : 48,
    "byteLength" : 192,
    "target" : 34962
  }, {
    "buffer" : 0,
    "byteOffset" : 240,
    "byteLength" : 192,
    "target" : 34962
  }, {
    "buffer" : 0,
    "byteOffset" : 432,
    "byteLength" : 64,
    "byteStride" : 4,
    "target" : 34962
  }, {
    "buffer" : 1,
    "byteOffset" : 0,
    "byteLength" : 48
  }, {
    "buffer" : 1,
    "byteOffset" : 48,
    "byteLength" : 36
  }, {
    "buffer" : 1,
    "byteOffset" : 84,
    "byteLength" : 20
  }, {
    "buffer" : 2,
    "byteOffset" : 0,
    "byteLength" : 14
  }, {
    "buffer" : 2,
    "byteOffset" : 16,
    "byteLength" : 20
  }, {
    "buffer" : 2,
    "byteOffset" : 36,
    "byteLength" : 16
  }, {
    "buffer" : 2,
    "byteOffset" : 52,
    "byteLength" : 20
  } ],
  "materials" : [ {
    "pbrMetallicRoughness" : {
      "baseColorFactor" : [ 0.5, 1.0, 0.5, 1.0 ],
      "metallicFactor" : 0.0,
      "roughnessFactor" : 1.0
    },
    "alphaMode" : "OPAQUE",
    "doubleSided" : true
  } ],
  "meshes" : [ {
    "primitives" : [ {
      "extensions" : {
        "EXT_mesh_features" : {
          "featureIds" : [ {
            "offset" : 0,
            "repeat" : 4
          }, {
            "attribute" : 0
          } ],
          "propertyTables" : [ 0, 1 ]
        }
      },
      "attributes" : {
        "POSITION" : 1,
        "NORMAL" : 2,
        "FEATURE_ID_0" : 3
      },
      "indices" : 0,
      "material" : 0,
      "mode" : 4
    } ]
  } ],
  "nodes" : [ {
    "mesh" : 0
  } ],
  "scene" : 0,
  "scenes" : [ {
    "nodes" : [ 0 ]
  } ]
}